Coordinates
version=1
nRows=74
nColumns=11
inDegrees=no

Units are S.I. units (second, meters, Newtons, ...)
If the header above contains a line with 'inDegrees', this indicates whether rotational values are in degrees (yes) or radians (no).

endheader
time	pelvis_tilt	pelvis_tx	pelvis_ty	hip_flexion_r	knee_angle_r	ankle_angle_r	hip_flexion_l	knee_angle_l	ankle_angle_l	lumbar_extension
316	0.0263184	0.338557	1.01627	0.439858	-1.1633	-0.0992176	-0.0658441	0.0631384	0.122064	0
316.01	0.0262521	0.337414	1.0168	0.459255	-1.13913	-0.0814762	-0.0792568	0.0631989	0.130106	0
316.02	0.0259574	0.336577	1.01689	0.477865	-1.11121	-0.0621192	-0.0891502	0.0573016	0.141883	0
316.03	0.0626837	0.342858	1.01997	0.438963	-1.07066	-0.0483261	-0.145034	0.043583	0.162253	0
316.04	0.0371835	0.33755	1.01748	0.485885	-1.03062	-0.0240355	-0.132789	0.0594586	0.167314	0
316.05	0.0235178	0.334705	1.01561	0.517906	-0.99095	-0.00822542	-0.127898	0.0600023	0.17048	0
316.06	0.0358881	0.336908	1.0162	0.504316	-0.934308	-0.000102389	-0.154089	0.0519324	0.189161	0
316.07	0.0369543	0.336212	1.01528	0.505725	-0.877675	0.0136202	-0.164406	0.0423209	0.204365	0
316.08	0.0385182	0.336339	1.0141	0.505115	-0.815587	0.0260768	-0.176733	0.0363367	0.216702	0
316.09	0.0378345	0.336127	1.01251	0.503195	-0.747175	0.0353545	-0.187568	0.031045	0.231765	0
316.1	0.0402119	0.336498	1.01097	0.493278	-0.672733	0.0429238	-0.203515	0.027564	0.245564	0
316.11	0.0250675	0.333669	1.00758	0.507485	-0.59972	0.0474316	-0.198778	0.0300943	0.2518	0
316.12	0.0257001	0.334066	1.00565	0.494097	-0.51645	0.0511098	-0.217046	0.0349116	0.25989	0
316.13	0.0396682	0.337029	1.00462	0.458549	-0.426369	0.0573707	-0.251979	0.0369177	0.274265	0
316.14	0.0406308	0.337904	1.00217	0.442002	-0.341509	0.0660643	-0.269994	0.0402019	0.282298	0
316.15	0.0407386	0.338535	0.999831	0.424679	-0.257869	0.076224	-0.285182	0.0402808	0.289257	0
316.16	0.0407431	0.33924	0.997295	0.406571	-0.178517	0.086257	-0.298087	0.0358334	0.301318	0
316.17	0.0394932	0.339466	0.994581	0.389881	-0.107476	0.0999018	-0.309754	0.0306973	0.311585	0
316.18	0.0403025	0.340673	0.992162	0.374068	-0.0477826	0.113728	-0.322951	0.0255497	0.315927	0
316.19	0.041944	0.34134	0.989855	0.355705	0.00326754	0.12297	-0.337662	0.0185731	0.322422	0
316.2	0.0430234	0.342461	0.987566	0.336849	0.046764	0.126857	-0.348683	0.00739809	0.333237	0
316.21	0.0442584	0.34387	0.985579	0.324767	0.0631562	0.137753	-0.359023	-0.00508465	0.341778	0
316.22	0.0469433	0.345559	0.984234	0.321592	0.0453894	0.15225	-0.369225	-0.0207064	0.345838	0
316.23	0.0474296	0.34713	0.982794	0.326401	0.00920372	0.156036	-0.374783	-0.0388534	0.347466	0
316.24	0.049991	0.348434	0.981681	0.323986	-0.0191102	0.141172	-0.382814	-0.057617	0.34868	0
316.25	0.0485017	0.349417	0.980683	0.324451	-0.0353724	0.114224	-0.381652	-0.0825357	0.346734	0
316.26	0.048209	0.350385	0.980405	0.317841	-0.0380879	0.0814008	-0.382895	-0.107249	0.340346	0
316.27	0.0774984	0.356078	0.982393	0.273021	-0.0423942	0.0443763	-0.412708	-0.149872	0.336005	0
316.28	0.0493962	0.353396	0.98015	0.292303	-0.0328892	-0.00172687	-0.375565	-0.180616	0.32489	0
316.29	0.0532077	0.356123	0.980616	0.282493	-0.0423549	-0.0318426	-0.370817	-0.224144	0.311139	0
316.3	0.0557945	0.358143	0.981532	0.277882	-0.0597569	-0.0411625	-0.364316	-0.267075	0.290992	0
316.31	0.0589904	0.360076	0.982774	0.27025	-0.0758337	-0.0372635	-0.355509	-0.312825	0.263328	0
316.32	0.0619444	0.36209	0.98446	0.258521	-0.0867111	-0.0265747	-0.342169	-0.363196	0.223889	0
316.33	0.0636992	0.36365	0.986605	0.246345	-0.0952278	-0.0138179	-0.321488	-0.420003	0.174504	0
316.34	0.0644577	0.364614	0.989136	0.233693	-0.101451	-0.00273957	-0.294289	-0.480491	0.11649	0
316.35	0.0649409	0.365475	0.991652	0.218049	-0.102755	0.00620631	-0.263385	-0.542376	0.051533	0
316.36	0.0657978	0.366525	0.994141	0.198842	-0.0993762	0.0150963	-0.230577	-0.605147	-0.0208551	0
316.37	0.0657745	0.366474	0.996691	0.178526	-0.0916391	0.0332868	-0.192761	-0.671908	-0.0969986	0
316.38	0.0673127	0.367058	0.998995	0.155173	-0.0783148	0.0468954	-0.154071	-0.737349	-0.171525	0
316.39	0.0681903	0.367133	1.00113	0.132469	-0.0656227	0.0578032	-0.116345	-0.797861	-0.239279	0
316.4	0.085828	0.369145	1.00429	0.0945892	-0.0655532	0.0647688	-0.0992363	-0.857184	-0.309226	0
316.41	0.0827152	0.368245	1.00607	0.0828836	-0.0631224	0.0728624	-0.0552632	-0.911815	-0.371242	0
316.42	0.0800764	0.36705	1.00777	0.0719213	-0.0627828	0.0867073	-0.0132564	-0.962731	-0.394804	0
316.43	0.0745599	0.365033	1.0089	0.0646876	-0.0622085	0.0975967	0.0315676	-1.01076	-0.384407	0
316.44	0.051463	0.360611	1.00897	0.0750438	-0.0505473	0.106058	0.0994526	-1.05374	-0.355395	0
316.45	0.0489033	0.359072	1.01023	0.0623152	-0.046515	0.115458	0.138874	-1.08837	-0.321585	0
316.46	0.046245	0.357414	1.01134	0.0499558	-0.042267	0.126131	0.175566	-1.11391	-0.279816	0
316.47	0.0436258	0.355667	1.01253	0.0375574	-0.0377942	0.135724	0.209217	-1.13265	-0.232142	0
316.48	0.0407479	0.35378	1.01358	0.0269441	-0.0361248	0.142596	0.242618	-1.14701	-0.185575	0
316.49	0.0382308	0.351874	1.01471	0.0167286	-0.0350925	0.14773	0.274156	-1.15426	-0.148885	0
316.5	0.0361286	0.349994	1.0157	0.00656975	-0.0347474	0.158274	0.303595	-1.15476	-0.120517	0
316.51	0.0336378	0.34785	1.01653	-0.00270354	-0.0349325	0.166375	0.33217	-1.15009	-0.101497	0
316.52	0.0301632	0.345418	1.01715	-0.0101148	-0.036778	0.175416	0.361136	-1.14115	-0.0872423	0
316.53	0.0264449	0.343188	1.01762	-0.0172152	-0.0388378	0.184198	0.388271	-1.12616	-0.0766421	0
316.54	0.0145677	0.339314	1.01723	-0.0149603	-0.0386297	0.188544	0.42516	-1.10856	-0.0606605	0
316.55	0.0455578	0.344064	1.02028	-0.064869	-0.0492627	0.201853	0.395634	-1.07616	-0.0414151	0
316.56	0.0458859	0.342998	1.02049	-0.0791603	-0.0484064	0.211072	0.408284	-1.04289	-0.0201189	0
316.57	0.0404928	0.340356	1.01988	-0.0818647	-0.05398	0.219156	0.42964	-1.00819	-0.00385314	0
316.58	0.0131221	0.334229	1.0175	-0.0608769	-0.0469116	0.223126	0.476463	-0.964665	0.0198166	0
316.59	0.0101097	0.331975	1.0167	-0.0697214	-0.0473056	0.230032	0.487693	-0.918692	0.0379298	0
316.6	0.0105538	0.331039	1.01588	-0.0819658	-0.0489519	0.239628	0.491698	-0.866717	0.053826	0
316.61	0.0103976	0.33	1.0149	-0.0925326	-0.0524257	0.250576	0.494424	-0.810246	0.066515	0
316.62	0.0084947	0.328483	1.01365	-0.100193	-0.0572968	0.263151	0.497473	-0.751043	0.075721	0
316.63	0.00658042	0.327071	1.01221	-0.108122	-0.0621904	0.271773	0.498408	-0.689012	0.0774615	0
316.64	0.00591081	0.326331	1.01057	-0.11842	-0.0670486	0.281489	0.494308	-0.62197	0.0748506	0
316.65	0.00546708	0.325611	1.00884	-0.1279	-0.0734722	0.290911	0.487961	-0.550833	0.0713322	0
316.66	0.00442487	0.324751	1.00661	-0.137034	-0.0791476	0.303977	0.4787	-0.473853	0.0689191	0
316.67	0.00329667	0.324122	1.00421	-0.146897	-0.0840657	0.316873	0.465845	-0.392053	0.067288	0
316.68	0.0022857	0.323563	1.00168	-0.156797	-0.0896923	0.328692	0.453477	-0.312549	0.0649528	0
316.69	0.00163671	0.323297	0.998972	-0.167701	-0.0950035	0.343288	0.439716	-0.234142	0.0628143	0
316.7	0.00178795	0.323345	0.995927	-0.180098	-0.0993435	0.356011	0.425723	-0.160411	0.0648605	0
316.71	0.000194998	0.323084	0.992603	-0.189923	-0.104059	0.368703	0.415656	-0.0939386	0.0689152	0
316.72	0.00232072	0.323437	0.989705	-0.204704	-0.109708	0.381716	0.400152	-0.0340474	0.0770346	0
316.73	0.003735	0.324084	0.987007	-0.219331	-0.11348	0.3911	0.385825	0.0180422	0.0857445	0
